<svg width="15" height="41" viewBox="0 0 15 41" fill="none" xmlns="http://www.w3.org/2000/svg">
<g opacity="0.3">
<path fill-rule="evenodd" clip-rule="evenodd" d="M3.42863 0.491394C1.47572 3.03593 1.91253 6.68675 4.43049 8.69627C4.48128 8.73681 4.53254 8.77637 4.58423 8.81496C6.53713 6.27043 6.10033 2.61961 3.58237 0.610084C3.53158 0.569548 3.48032 0.529985 3.42863 0.491394ZM13.8258 14.2343C14.2179 17.9745 11.5399 21.3289 7.824 21.7898C7.81376 21.7154 7.80467 21.6405 7.79678 21.5651C7.40477 17.8249 10.0827 14.4705 13.7986 14.0096C13.8089 14.084 13.818 14.1589 13.8258 14.2343ZM14.7432 23.1903C10.728 22.3577 6.76842 24.891 5.85564 28.9071C5.83721 28.9882 5.82017 29.0693 5.80449 29.1503C9.8197 29.983 13.7792 27.4497 14.692 23.4335C14.7104 23.3525 14.7275 23.2714 14.7432 23.1903ZM1.45449 37.1341C5.72342 38.7793 10.5418 36.7089 12.2752 32.4535C12.3102 32.3676 12.3437 32.2814 12.3757 32.195C8.10675 30.5498 3.28838 32.6201 1.55498 36.8755C1.51996 36.9615 1.48647 37.0477 1.45449 37.1341ZM10.3304 6.63914C11.5433 9.82062 9.98042 13.3786 6.83627 14.6462C6.80987 14.5832 6.7844 14.5195 6.75988 14.4552C5.54692 11.2737 7.10981 7.71578 10.254 6.44814C10.2804 6.51116 10.3058 6.57483 10.3304 6.63914Z" fill="white"/>
</g>
</svg>
