<svg width="14" height="41" viewBox="0 0 14 41" fill="none" xmlns="http://www.w3.org/2000/svg">
<g opacity="0.3">
<path fill-rule="evenodd" clip-rule="evenodd" d="M10.1622 8.81496C8.2093 6.27043 8.6461 2.61961 11.1641 0.610084C11.2149 0.569548 11.2661 0.529985 11.3178 0.491394C13.2707 3.03593 12.8339 6.68675 10.3159 8.69627C10.2652 8.73681 10.2139 8.77637 10.1622 8.81496ZM0.920912 14.2342C0.528899 17.9744 3.20682 21.3288 6.92276 21.7898C6.933 21.7153 6.94208 21.6404 6.94998 21.5651C7.34199 17.8248 4.66407 14.4704 0.94813 14.0095C0.937886 14.0839 0.928806 14.1589 0.920912 14.2342ZM0.00341797 23.1903C4.01863 22.3577 7.97816 24.891 8.89094 28.9071C8.90937 28.9882 8.92641 29.0693 8.9421 29.1503C4.92688 29.983 0.967352 27.4497 0.054576 23.4335C0.0361473 23.3525 0.0190998 23.2714 0.00341797 23.1903ZM2.37066 32.195C6.63959 30.5498 11.458 32.6201 13.1914 36.8755C13.2264 36.9615 13.2599 37.0477 13.2918 37.1341C9.02291 38.7793 4.20455 36.7089 2.47114 32.4535C2.43613 32.3676 2.40264 32.2814 2.37066 32.195ZM7.98655 14.4552C9.19951 11.2737 7.63662 7.71578 4.49246 6.44814C4.46607 6.51116 4.4406 6.57483 4.41608 6.63914C3.20312 9.82062 4.76601 13.3786 7.91016 14.6462C7.93656 14.5832 7.96203 14.5195 7.98655 14.4552Z" fill="white"/>
</g>
</svg>
