<svg width="124" height="30" viewBox="0 0 124 30" fill="none" xmlns="http://www.w3.org/2000/svg">
<g clip-path="url(#clip0_2607_62441)">
<mask id="mask0_2607_62441" style="mask-type:luminance" maskUnits="userSpaceOnUse" x="0" y="0" width="124" height="30">
<path d="M124 0H0V30H124V0Z" fill="white"/>
</mask>
<g mask="url(#mask0_2607_62441)">
<path fill-rule="evenodd" clip-rule="evenodd" d="M25.084 0.552L25.228 8.67L23.802 9.082C22.376 4.954 20.382 2.616 16.534 2.616H11.546C11.3518 6.51162 11.2564 10.4115 11.26 14.312L14.68 14.176C16.82 14.176 17.816 12.524 18.244 10.184H19.526V19.954H18.244C17.816 17.614 16.818 15.964 14.68 15.964L11.26 15.826C11.26 19.404 11.4 22.292 11.546 24.082C11.83 26.696 12.542 27.936 14.396 28.072L16.106 28.35V29.45H0V28.35L1.426 28.072C3.278 27.936 3.99 26.696 4.274 24.082C4.562 19.818 4.704 10.872 4.274 5.92C3.99 3.304 3.28 2.2 1.426 1.928L0 1.788V0.554H25.084V0.552ZM75.54 8.532C80.386 8.532 84.092 12.66 84.092 18.304C84.092 25.46 79.532 30 71.978 30C69.268 30 66.56 29.588 63.996 29.036C64.138 26.146 64.28 8.532 63.996 5.23C63.71 3.578 63.284 2.89 62 2.616L61.002 2.476V1.654L70.552 0C70.408 1.378 70.408 5.368 70.408 9.77C71.978 8.944 73.544 8.532 75.54 8.532ZM33.208 8.258C40.336 8.258 43.9 12.936 43.9 19.128C43.9 25.046 39.908 30 32.78 30C25.654 30 22.092 25.32 22.092 19.128C22.092 13.212 26.084 8.258 33.208 8.258ZM85.944 19.266C85.944 13.626 89.65 8.256 96.92 8.256C102.906 8.256 105.758 12.524 105.758 18.166H92.5C92.36 23.256 94.924 26.972 100.056 26.972C102.336 26.972 103.476 26.424 104.902 25.458L105.472 26.146C104.046 28.072 100.912 30 96.92 30C90.506 30 85.944 25.596 85.944 19.266ZM122.716 9.36L122.86 14.726L121.864 15C120.58 11.284 118.87 9.77 116.304 9.77C114.594 9.77 113.31 11.01 113.31 12.798C113.31 14.588 114.734 15.552 118.726 17.064C122.432 18.44 124 20.092 124 22.982C124 27.246 120.438 30 114.88 30C112.17 30 109.034 29.45 107.324 28.762L107.182 22.706L108.178 22.43C109.748 26.558 111.744 28.072 114.45 28.072C116.73 28.072 118.014 26.558 118.014 24.908C118.014 23.256 117.014 22.292 113.454 21.056C110.032 19.954 107.61 18.44 107.61 14.864C107.61 11.284 110.89 8.256 116.16 8.256C118.726 8.256 121.006 8.67 122.716 9.36ZM62.428 8.808L60.148 14.448C57.296 12.66 54.162 13.488 53.448 14.448C53.308 17.754 53.308 22.98 53.59 25.598C53.734 27.248 54.162 28.072 55.586 28.21L57.296 28.35V29.45H44.042V28.35L45.04 28.21C46.322 28.072 46.892 27.248 47.034 25.598C47.178 22.708 47.32 16.926 47.034 13.624C46.894 11.834 46.322 11.148 45.04 11.01L44.04 10.87V10.046L53.59 8.258L53.45 13.074C55.73 8.12 60.006 7.432 62.428 8.808ZM72.262 28.486C75.254 28.486 77.392 24.22 77.392 18.714C77.392 14.312 75.682 10.734 72.546 10.734C71.834 10.734 71.266 10.872 70.408 11.148C70.268 18.304 70.408 26.422 70.552 28.348C70.98 28.486 71.692 28.486 72.262 28.486ZM32.782 9.634C29.646 9.634 28.79 13.762 28.79 19.128C28.79 24.358 30.216 28.624 33.068 28.624C36.344 28.624 37.202 24.496 37.202 19.128C37.202 13.898 35.776 9.634 32.782 9.634ZM92.502 16.654L99.2 16.514C99.2 13.762 98.772 9.634 96.35 9.634C93.926 9.634 92.646 13.486 92.502 16.654Z" fill="#AFB9C8"/>
</g>
</g>
<defs>
<clipPath id="clip0_2607_62441">
<rect width="124" height="30" fill="white"/>
</clipPath>
</defs>
</svg>
