<svg width="209" height="30" viewBox="0 0 209 30" fill="none" xmlns="http://www.w3.org/2000/svg">
<g clip-path="url(#clip0_2607_62464)">
<mask id="mask0_2607_62464" style="mask-type:luminance" maskUnits="userSpaceOnUse" x="0" y="0" width="209" height="30">
<path d="M208.571 0H0V30H208.571V0Z" fill="white"/>
</mask>
<g mask="url(#mask0_2607_62464)">
<path fill-rule="evenodd" clip-rule="evenodd" d="M12.8887 0.387504C13.4716 0.440361 14.3873 0.730361 15.0773 1.34179C15.8102 2.06321 15.9773 3.15607 15.7202 4.14893C15.4916 5.03464 15.2359 5.49464 14.3444 6.10607C13.4416 6.72179 12.3516 6.67036 12.3516 6.67036V10.506L14.1944 12.016L12.3516 13.5217V18.746C12.3516 18.746 14.1987 17.6746 15.3444 15.2746C15.3444 15.2746 15.3916 15.1446 15.4987 14.8975C15.6002 15.5403 15.5416 16.8403 14.8244 18.5117C14.2816 19.7689 13.2973 20.9803 12.063 21.6689C9.87444 22.8975 8.23301 23.016 6.47301 22.646C5.40038 22.4308 4.38389 21.9959 3.4875 21.3687C2.59112 20.7416 1.83422 19.9357 1.26444 19.0017C0.367297 17.566 -0.0355598 15.8917 0.00301163 14.0903C0.0744402 10.5532 2.67444 7.50464 5.67444 6.36607C6.04015 6.2275 6.18444 6.1375 6.70301 6.08893C6.46444 6.25321 6.18873 6.46607 5.85015 6.69179C4.88301 7.33464 4.05587 8.61464 3.70158 9.59893L9.52587 6.97036V15.2103L4.82873 17.5917C5.36444 18.3417 6.99015 19.4789 8.38158 19.6403C10.7473 19.9046 12.1359 18.8589 12.1359 18.8589V13.5217L10.3002 12.0146L12.1344 10.5089V6.67036C11.1344 6.55321 9.92015 6.21893 9.20873 6.04179C8.16587 5.78036 4.68301 4.79179 4.13444 4.70893C3.58873 4.62607 2.91301 4.65179 2.50587 5.02179C2.09587 5.39464 1.84301 6.05036 2.0173 6.64036C2.11587 6.97321 2.34301 7.16893 2.51444 7.36036C2.51444 7.36036 2.31444 7.34321 1.94873 7.12179C1.29158 6.72179 0.791583 5.94179 0.731583 4.97893C0.684672 4.37 0.794952 3.75923 1.05185 3.20516C1.30875 2.65108 1.70366 2.17228 2.19873 1.81464C3.09158 1.23321 4.10301 0.860361 5.27873 1.02893C6.99301 1.2775 9.30015 2.2575 11.3544 2.7575C12.1502 2.95179 12.7659 3.0175 13.3259 2.68607C13.5859 2.49607 14.0444 2.00607 13.6687 1.35464C13.2316 0.59179 12.3944 0.608932 11.683 0.474647C12.2944 0.344647 12.4287 0.344647 12.8887 0.388932M5.96301 16.7717V8.81464L3.59873 9.88036C3.59873 9.88036 2.99587 11.2475 3.10158 13.2303C3.18444 14.7803 4.04015 16.6332 4.6973 17.4089L5.96301 16.7717ZM35.4759 8.4275C35.4759 8.4275 33.6916 9.52036 32.4916 10.246C31.2916 10.966 29.683 11.7603 29.683 11.7603V19.3532L28.6087 20.2246L28.7516 20.3946L29.7987 19.5403L33.0802 22.5417L38.7844 17.9703L38.6487 17.8046L35.4973 20.3075L32.9059 17.8517V16.9375L38.1102 13.0617L35.4759 8.4275ZM35.5516 14.6975L32.9059 16.6589V10.1332L35.5516 14.6975ZM20.5259 25.3975C21.2744 25.5832 22.5959 25.6889 24.1887 24.8803C25.9516 23.9875 26.8387 22.0903 26.8273 20.1475L26.9016 17.3917V11.3732L28.0302 10.5017L27.8987 10.3317L26.7887 11.1789L24.2273 8.2975L20.9416 11.1517V1.45179L16.8373 4.66179C17.0202 4.77893 17.6016 4.8875 17.6187 5.71607V19.306L15.8816 20.6117L16.0002 20.7946L16.8402 20.1603L19.1773 22.3603L22.8573 19.396L22.723 19.2275L21.8587 19.9217L20.943 19.0017L20.9516 11.4303L22.023 10.506L23.623 12.5146C23.623 12.5146 23.6187 17.4175 23.623 19.0446C23.6116 20.7803 23.6059 22.9446 22.7044 23.9903C21.8044 25.0417 21.443 25.1246 20.5259 25.3975ZM46.063 24.7117C44.5916 24.5417 43.9759 23.6403 43.9916 22.9289C44.003 22.4717 44.4116 21.5789 45.3059 21.4575C46.1987 21.3317 47.1116 21.7575 47.883 22.6717L51.2787 18.876L51.1144 18.7275L50.203 19.7617C49.2833 18.7195 48.026 18.0342 46.6516 17.826V6.2575L55.4716 22.516C55.4716 22.516 55.5559 22.7017 55.9187 22.7017C56.2302 22.7017 56.1559 22.446 56.1559 22.446L56.1544 6.08607C56.8702 6.05607 57.9644 5.6575 58.4959 5.10607C60.1944 3.33893 59.5002 1.41321 59.3144 1.22607C59.2102 2.06893 58.5716 2.91464 57.503 2.91893C56.103 2.92321 55.2487 1.8775 55.2487 1.8775L51.8559 5.79179L52.0173 5.93893L52.9887 4.81464C54.1773 5.92036 55.043 6.02464 55.9402 6.08607V15.5789L49.3973 3.55179C48.8059 2.55893 47.903 1.68607 46.4902 1.67321C44.8644 1.66464 43.7016 3.11464 43.5616 4.36321C43.4044 5.77321 43.5787 6.09893 43.5787 6.09893C43.5787 6.09893 43.8187 4.5275 44.7787 4.54179C45.6416 4.55464 46.0902 5.35607 46.4359 5.96036V9.44321C45.5473 9.50321 43.2302 9.6075 43.0887 12.046C43.0787 12.9532 43.6359 13.9032 44.123 14.2246C44.7502 14.6403 45.2373 14.6317 45.2373 14.6317C45.2373 14.6317 44.4873 14.2289 44.713 13.4303C44.913 12.7146 46.3844 12.5975 46.4373 12.896V17.8132C45.7302 17.8046 43.463 17.8817 42.4416 19.8475C41.8259 21.036 41.8616 22.3646 42.5202 23.3017C43.0573 24.0646 44.1616 25.0417 46.063 24.7117ZM64.6902 8.4275C64.6902 8.4275 62.9044 9.52036 61.7044 10.246C60.5044 10.966 58.8959 11.7603 58.8959 11.7603V19.3532L57.823 20.2246L57.9659 20.3946L59.0116 19.5403L62.293 22.5417L67.9973 17.9703L67.8616 17.8046L64.7102 20.3075L62.1187 17.8517V16.9375L67.323 13.0617L64.6902 8.4275ZM64.7659 14.6975L62.1187 16.6589V10.1332L64.7659 14.6975ZM72.6616 22.5989L69.8659 20.246L68.6373 21.1489L68.513 20.9717L69.7616 20.0475V13.4732C69.8216 10.766 67.3116 11.4389 67.4473 8.56607C67.5073 7.30464 68.7159 6.34893 69.3244 6.03321C69.9773 5.69893 70.683 5.69893 70.683 5.69893C70.683 5.69893 69.5387 6.42321 69.8159 7.46464C70.2444 9.07036 72.9573 9.21321 73.0073 11.3517V18.8103L75.0102 20.4332L75.5373 20.0175V11.9417L74.4573 10.856L77.2373 8.3675L79.7773 10.6446L78.8087 11.7075V18.8632L81.1873 20.8489L81.6102 20.5775V11.9632L80.5273 10.9403L83.313 8.36321L85.9173 10.5403L86.9573 9.6075L87.0987 9.77321L84.7559 11.8546V18.876L78.7659 22.616L75.7016 20.1589L72.6616 22.5989ZM195.217 8.4275C195.217 8.4275 193.432 9.52036 192.234 10.246C191.033 10.966 189.423 11.7603 189.423 11.7603V19.3532L188.35 20.2246L188.493 20.3946L189.54 19.5403L192.823 22.5417L198.526 17.9703L198.392 17.8046L195.239 20.3075L192.647 17.8517V16.9375L197.852 13.0617L195.217 8.4275ZM195.294 14.6975L192.647 16.6589V10.1332L195.294 14.6975ZM168.44 11.6032L168.58 11.7689L169.654 10.8317L171.249 12.6575V18.9317L170.474 19.6475L172.96 22.4903L175.509 19.9475L174.462 18.8489V11.2603L175.096 10.7489L176.857 12.8317V19.0889L176.196 19.756L178.534 22.4203L181.037 19.8875L180.117 18.9103L180.094 11.2917L180.77 10.7346L182.607 12.7832V19.006L182.003 19.6175L184.586 22.4689L188.054 19.226L187.907 19.0675L187.064 19.8532L185.773 18.4032V11.3003L187.02 10.3403L186.892 10.1675L185.643 11.126L183.283 8.44893L179.909 11.1489L177.544 8.54464L174.287 11.126L171.902 8.5575L168.44 11.6032Z" fill="#AFB9C8"/>
<path fill-rule="evenodd" clip-rule="evenodd" d="M161.379 11.4087L161.52 11.573L162.427 10.7787L163.846 12.4787V19.6516L162.846 20.5373L162.985 20.703L164.036 19.7959L166.326 22.4673L169.635 19.4787L169.495 19.3144L168.52 20.1816L167.152 18.5844V11.573L168.306 10.5616L168.166 10.3973L167.07 11.3516L164.662 8.50873L161.379 11.4087ZM162.333 5.46873L164.825 3.16016L166.849 5.43301L164.349 7.73301L162.333 5.46873Z" fill="#AFB9C8"/>
<path fill-rule="evenodd" clip-rule="evenodd" d="M158.983 0.387504C159.567 0.440361 160.483 0.730361 161.173 1.34179C161.906 2.06321 162.073 3.15607 161.816 4.14893C161.587 5.03464 161.332 5.49464 160.439 6.10607C159.537 6.72179 158.446 6.67036 158.446 6.67036V10.506L160.29 12.016L158.447 13.5217V18.746C158.447 18.746 160.293 17.6746 161.439 15.2746C161.439 15.2746 161.487 15.1446 161.593 14.8975C161.696 15.5403 161.639 16.8403 160.919 18.5117C160.377 19.7689 159.393 20.9803 158.157 21.6689C155.97 22.8975 154.329 23.016 152.57 22.646C151.497 22.4313 150.48 21.9967 149.584 21.3694C148.687 20.7422 147.93 19.9361 147.36 19.0017C146.463 17.566 146.06 15.8917 146.099 14.0903C146.17 10.5532 148.77 7.50464 151.77 6.36607C152.135 6.2275 152.28 6.1375 152.799 6.08893C152.56 6.25321 152.285 6.46607 151.946 6.69179C150.979 7.33464 150.152 8.61464 149.797 9.59893L155.62 6.97036V15.2103L150.925 17.5917C151.46 18.3417 153.086 19.4789 154.477 19.6403C156.843 19.9046 158.23 18.8589 158.23 18.8589V13.5217L156.397 12.016L158.232 10.5103V6.67036C157.232 6.55321 156.017 6.21893 155.307 6.04179C154.262 5.78036 150.779 4.79179 150.232 4.70893C149.685 4.62607 149.01 4.65179 148.603 5.02179C148.193 5.39464 147.94 6.05036 148.115 6.64036C148.213 6.97321 148.439 7.16893 148.612 7.36036C148.612 7.36036 148.41 7.34321 148.046 7.12179C147.389 6.72179 146.889 5.94179 146.827 4.97893C146.78 4.37014 146.891 3.75951 147.147 3.20547C147.404 2.65143 147.798 2.17254 148.293 1.81464C149.187 1.23321 150.199 0.860361 151.375 1.02893C153.089 1.2775 155.395 2.2575 157.449 2.7575C158.246 2.95179 158.862 3.0175 159.42 2.68607C159.682 2.49607 160.139 2.00607 159.765 1.35464C159.327 0.59179 158.49 0.608932 157.779 0.474647C158.39 0.344647 158.525 0.344647 158.983 0.388932M152.06 16.7717V8.81464L149.695 9.88036C149.695 9.88036 149.092 11.2475 149.197 13.2303C149.28 14.7803 150.136 16.6332 150.793 17.4089L152.06 16.7717ZM201.565 23.5232C201.186 23.636 199.545 23.2317 199.15 21.5089C198.766 19.8303 199.917 18.6946 201.659 16.906L199.605 15.006V11.3775C199.605 11.3775 201.113 10.6146 202.296 9.8675C203.479 9.1175 204.69 8.30607 204.69 8.30607C204.69 8.30607 205.572 9.43464 206.57 9.34321C208.132 9.20464 208.059 7.9575 208.013 7.66464C208.28 8.14607 208.993 9.5775 206.249 12.7789L208.485 14.6075V19.3189C208.485 19.3189 205.887 20.6846 203.433 22.4989C203.433 22.4989 202.062 20.7632 200.872 21.5917C200.069 22.1517 200.436 23.0975 201.565 23.5232ZM199.633 19.8903C199.633 19.8903 200.813 17.9175 202.839 18.3417C204.783 18.7503 205.457 20.8275 205.457 20.8275V16.0417L204.102 14.8489C202.613 16.3632 199.962 18.5532 199.633 19.8903ZM202.642 9.89464V13.6646L203.882 14.7575C203.882 14.7575 206.575 12.576 207.553 10.5532C207.553 10.5532 206.343 12.2146 204.713 11.7075C203.349 11.2875 202.642 9.89464 202.642 9.89464ZM117.689 11.5603L118.695 10.6232L118.84 10.7875L117.86 11.7075V19.2017C117.86 19.2017 115.999 20.1989 114.699 20.9417C113.4 21.6832 112.013 22.556 112.013 22.556L108.597 19.6432L107.693 20.4375L107.547 20.2732L108.497 19.436V11.3789H108.51C108.51 11.3789 110.122 10.6403 111.48 9.86464C112.696 9.16893 114.056 8.3675 114.056 8.3675L117.689 11.5603ZM111.737 18.1646L114.625 20.8075V12.7175L111.739 10.0146V18.1632L111.737 18.1646ZM124.405 10.8003L126.575 8.5575C126.575 8.5575 126.873 8.82179 127.152 8.96179C127.31 9.03893 127.966 9.38179 128.57 9.0475C128.896 8.86607 128.942 8.81893 129.3 8.47607C129.375 10.2189 128.547 11.4475 127.515 11.9546C127.092 12.1632 125.857 12.5632 124.566 10.9689V19.0317L125.94 20.2603L127.086 19.3003L127.219 19.4703L123.629 22.5032L120.897 19.9875L119.915 20.9232L119.753 20.7503L121.25 19.3832L121.262 12.4232L120.115 10.8832L119.127 11.7646L118.985 11.6032L122.462 8.44036L124.405 10.8003ZM133.552 14.1589L137.563 8.25464C137.563 8.25464 138.092 8.8875 139.015 9.13464C140.267 9.46464 141.36 8.24036 141.36 8.24036C141.152 9.82036 140.36 11.6117 138.726 11.886C137.287 12.1289 135.949 10.996 135.949 10.996L135.689 11.4032L141.257 19.9175L142.372 18.9275L142.516 19.0932L138.693 22.4717L133.552 14.1589Z" fill="#AFB9C8"/>
<path fill-rule="evenodd" clip-rule="evenodd" d="M130.239 6.27587C130.239 5.00016 129.721 4.21444 129.047 4.27016L133.423 1.16016V18.7673L134.58 19.9987L135.454 19.2316L135.591 19.3959L132.066 22.5116L129.677 20.2416L128.72 21.093L128.57 20.9273L130.239 19.4559V6.27587ZM93.6571 5.98587C93.6571 4.79587 93.1814 4.13158 92.4085 4.11444C91.2956 4.08873 91.0314 5.6773 91.0314 5.6773C91.0314 5.6773 90.8299 4.45301 91.8414 3.34158C92.4099 2.72158 93.4714 1.85016 95.1314 2.25301C96.8456 2.67444 97.3314 4.01873 97.3314 5.2073V21.5873C98.04 21.6741 98.7407 21.8164 99.4271 22.013V2.26158H99.6414V4.92587L103.156 2.06158L105.729 4.37873L106.928 3.32873L107.066 3.49444L105.811 4.5873V19.8173C105.75 20.8102 105.591 21.8216 104.664 22.403C102.596 23.6444 100.101 22.213 97.8785 21.8873C96.2299 21.6402 93.6414 21.323 92.9914 22.8544C92.8529 23.1687 92.8323 23.5223 92.9333 23.8505C93.0343 24.1787 93.2502 24.4595 93.5414 24.6416C95.0428 25.6573 101.729 22.9373 104.023 24.0173C106.113 25.003 106.106 26.5602 105.783 27.6316C105.24 29.6402 102.733 29.9916 102.733 29.9916C102.733 29.9916 103.959 29.2716 103.609 28.0773C103.431 27.4759 103.027 27.3059 101.716 27.453C98.8499 27.783 95.4242 29.1887 93.1228 28.213C91.9371 27.713 91.0971 26.213 91.1785 24.7373C91.2371 22.6159 93.6585 21.7787 93.6585 21.7787V13.9287C93.5871 13.6159 92.2971 13.7002 92.0142 14.2759C91.5856 15.1487 92.5485 15.5473 92.5485 15.5473C92.5485 15.5473 91.7485 15.6687 91.0799 14.8887C90.7542 14.5059 90.0728 13.1702 90.9585 11.933C91.6871 10.913 92.5585 10.7359 93.6585 10.6144L93.6571 5.98587ZM99.6399 22.073C99.6399 22.073 100.66 22.3473 101.404 21.7302C102.23 21.0402 102.143 20.073 102.143 20.073V13.973C102.143 13.973 101.664 13.3473 100.903 13.3473C100.143 13.3473 99.6399 13.9944 99.6399 13.9944V22.073ZM102.143 6.05873L100.456 4.5573L99.6414 5.2073V10.8616C99.6414 10.8616 100.141 11.5044 100.903 11.5044C101.664 11.5044 102.143 10.8873 102.143 10.8873V6.05873ZM102.143 11.2259C102.143 11.2259 101.66 11.7816 100.9 11.7816C100.138 11.7816 99.6399 11.2216 99.6399 11.2216V13.6344C99.6399 13.6344 100.138 13.0744 100.898 13.0744C101.66 13.0744 102.141 13.603 102.141 13.603L102.143 11.2259Z" fill="#AFB9C8"/>
</g>
</g>
<defs>
<clipPath id="clip0_2607_62464">
<rect width="209" height="30" fill="white"/>
</clipPath>
</defs>
</svg>
