<svg width="225" height="28" viewBox="0 0 225 28" fill="none" xmlns="http://www.w3.org/2000/svg">
<mask id="mask0_2607_62474" style="mask-type:luminance" maskUnits="userSpaceOnUse" x="0" y="0" width="225" height="28">
<path d="M225 0.900391H0V27.099H225V0.900391Z" fill="white"/>
</mask>
<g mask="url(#mask0_2607_62474)">
<path fill-rule="evenodd" clip-rule="evenodd" d="M36.8925 2.18305C37.1283 2.26473 37.287 2.34641 37.2069 2.67004C37.1283 3.23716 36.2622 2.99367 35.7875 3.15548C34.6055 3.56079 34.9985 5.18048 34.8413 6.31473V22.3498C34.8413 22.9986 34.7642 23.726 35.2358 23.971C35.5517 24.4549 36.498 24.1313 37.1283 24.213C38.0761 24.0496 38.469 22.9986 39.1009 22.5116C39.3367 21.6209 39.7312 20.8935 39.8899 19.9996C40.363 18.3815 40.1257 16.2763 40.6774 14.6551C40.9918 14.575 41.0719 14.8185 41.1505 15.062V24.0496C41.3077 24.2931 41.0719 24.6969 41.0719 24.9419L40.363 25.1037H31.6065C31.2921 25.0251 30.819 25.1037 30.6618 24.7801C30.7404 23.8893 32.1598 24.2931 32.1598 23.239V11.821C32.0796 10.3631 32.1598 8.50155 32.1598 7.12535C32.1598 5.74761 32.5543 3.88442 31.6065 3.15548C31.2136 2.75018 29.9514 3.39744 30.1086 2.50822C30.1887 2.34641 30.2658 2.26473 30.5031 2.18459L36.8925 2.18305ZM68.599 3.39744C68.9134 3.64093 69.3079 3.39744 69.4651 3.3173C69.781 2.99367 69.4651 2.18305 70.0969 2.26473L70.4899 2.34641V10.8501C70.3327 10.9303 70.4899 11.4157 70.2541 11.4157H69.781C69.6238 8.33819 69.3865 5.18048 67.1781 3.72261C66.7766 3.46768 66.3129 3.32751 65.8374 3.3173C64.8911 3.39744 64.3394 4.12792 63.9433 4.85685C63.3932 5.74607 63.5504 7.44898 64.0235 8.25805C65.207 9.95788 67.0995 10.9303 68.5189 12.308C69.9367 13.8476 71.5949 15.4673 71.6735 18.0563C71.9108 20.8919 70.9646 23.2405 69.1492 24.7801C68.1243 25.5075 66.5463 25.5907 65.3642 25.1037L63.7076 23.9695C63.313 23.8092 63.2344 24.213 63.0773 24.3748C63.0773 24.8587 62.9987 25.1854 62.6827 25.3472L62.131 25.1854L62.0524 20.4881V15.2222C62.2821 15.143 62.5317 15.143 62.7613 15.2222C62.9185 18.5433 62.9987 22.0246 65.3642 23.7275C66.0731 24.213 66.9423 24.6183 67.9672 24.2931C69.4651 23.6459 70.0168 21.946 70.0168 20.0828C69.8596 18.4616 69.2278 17.2472 68.1243 16.358C66.6264 14.4948 64.418 13.5224 62.9987 11.4974C62.6041 11.012 62.6041 10.3631 62.2898 9.79761C61.4992 7.12381 62.5255 4.45 64.0235 2.83185C64.7324 2.34641 65.8374 2.02278 66.782 2.26473C67.494 2.50822 68.1228 2.91199 68.599 3.39744ZM6.21081 2.26473C6.36954 2.34487 6.60533 2.34487 6.68393 2.67004C6.44814 3.23716 5.73769 3.23716 5.50036 3.72261C5.26458 4.20805 5.26458 5.10035 5.42331 5.66593L6.36954 11.4173C6.76406 13.2789 7.15704 15.2222 7.63016 17.087H7.86749C8.49934 14.333 8.97245 11.5775 9.44403 8.82518C8.97245 6.72004 9.36697 3.88442 7.47297 2.91353C7.31578 2.50822 7.5531 2.26473 7.94608 2.26473C9.05105 2.34487 12.6002 2.26473 13.4678 2.34487C13.5468 2.5534 13.5468 2.7836 13.4678 2.99213C12.836 3.23716 12.1271 3.15548 11.7326 3.72261C10.8649 5.18048 12.0469 6.72004 11.9683 8.41987L12.9146 13.5224C13.1519 14.6551 13.1519 16.0313 13.7822 16.9251H13.8624L15.0444 11.6592C15.6762 9.47244 15.9906 7.12381 16.4653 4.85685C16.6225 4.12792 16.3851 3.64247 15.912 3.3173C15.5961 2.99367 15.0444 3.07381 14.5713 2.99367C14.4923 2.78514 14.4923 2.55494 14.5713 2.34641C15.7533 2.34641 19.3826 2.26473 19.8572 2.34641C20.093 2.42655 20.0129 2.83185 19.9343 2.99367C19.2254 3.15548 18.5165 3.3173 18.1204 3.80429C17.6473 5.09881 17.4115 6.47655 17.0956 7.77107L15.7548 14.0895C14.9658 17.5709 14.0981 21.1354 13.3106 24.6984C13.1519 24.9419 12.7574 24.9419 12.5987 24.7801C12.1255 24.1328 12.1255 23.0787 11.8897 22.1895L10.7077 15.2222L10.0759 12.3065H9.91869L8.97245 17.087C8.49076 19.4611 8.01764 21.837 7.5531 24.2145C7.47297 24.6984 7.15704 25.0236 6.52519 24.8602C5.97502 24.6984 6.21081 23.971 6.05362 23.484L5.6591 20.8919L4.47554 14.4948L3.68804 9.87774C3.45071 8.01456 2.97759 6.15137 2.58307 4.36987C2.50447 3.88442 2.03136 3.56079 1.71543 3.23716C1.16372 3.07381 0.690604 3.3173 0.138892 2.99367C-0.0198412 2.83185 -0.0984371 2.34641 0.215947 2.26473H6.21081ZM49.1165 2.26473C49.1951 2.42655 49.3538 2.75018 49.1951 2.91199C48.4862 3.23562 47.3026 2.91199 47.1454 3.80583C46.9882 6.31473 46.9882 8.17791 46.9882 10.6883L46.9081 20.5683H46.8295C47.3026 21.7827 46.1976 24.2145 47.9329 24.2931C48.329 24.3748 49.1165 24.3748 49.511 24.1313C51.0891 22.8352 51.5606 20.6484 51.8781 18.4616C52.1139 17.3289 51.9552 15.9527 52.2726 14.8169C52.4752 14.7374 52.7003 14.7374 52.9029 14.8169V24.6984L52.8228 25.1037C51.5606 25.1037 50.2199 25.1037 49.2737 25.1854L44.7783 25.1037H42.3341C41.9396 25.1037 42.0983 24.5366 42.1754 24.2931C42.9644 24.2145 43.9122 24.2931 44.3052 23.6459C44.6211 22.4284 44.3853 20.8102 44.5425 19.5157C44.3853 18.383 44.6211 17.1686 44.4654 15.871L44.5425 14.8169V4.45C44.4654 4.04624 44.2266 3.56079 43.9892 3.3173C43.5161 2.75018 41.6252 3.56079 42.3341 2.26473H49.1165ZM82.4797 2.34641L82.6368 2.75018V12.0661C82.5598 12.308 82.3995 12.3897 82.2423 12.4698L81.8478 12.308C81.9264 9.3923 81.5334 6.80018 80.7428 4.45155C80.5856 3.9661 80.1911 3.56079 79.718 3.3173C79.325 3.3173 78.929 3.3173 78.7718 3.64093V20.8919H78.6932C78.7718 22.1063 78.536 23.6443 79.4021 24.2145C79.9553 24.6198 80.9016 23.971 80.9817 24.8618C80.9817 25.509 80.1125 25.0236 79.718 25.2655H77.9843V25.1854C77.431 25.4289 76.8793 25.0236 76.4062 25.2655C75.9331 25.1854 74.9082 25.1854 74.1978 25.1854C73.9605 25.1037 74.0406 24.6198 74.1192 24.4549C74.9868 24.2931 75.9331 24.2145 76.249 23.2405V3.80429C76.0903 3.39744 75.8545 3.3173 75.5386 3.23562C74.355 3.55925 74.0406 4.85685 73.7247 6.07124C73.3302 7.85274 73.0158 9.63579 73.1714 11.8226C73.0142 12.0661 73.1714 12.4698 72.7784 12.4698L72.3053 12.308V2.50822C73.3302 2.18459 80.0339 2.26473 82.4797 2.34641ZM108.507 2.34641C109.059 2.5899 108.743 3.72261 108.822 4.28819C109.059 5.58579 108.664 7.04367 108.9 8.17637C108.664 8.66182 108.979 8.98699 108.9 9.47089C108.743 10.0411 108.9 10.8501 108.743 11.3356C107.638 11.4157 108.191 9.95942 108.033 9.23048C107.795 6.7185 106.929 4.45155 104.878 3.39744C104.169 3.15548 102.985 3.15548 102.512 3.72261C102.039 5.18048 102.277 7.61079 102.277 8.98699C102.118 9.47244 102.354 9.63425 102.277 10.2013V12.4698C102.354 12.7118 102.196 13.3606 102.75 13.2789C104.642 12.3881 104.878 10.1197 104.878 7.85274C104.878 7.52911 105.035 7.3673 105.51 7.44744L105.587 7.93288C105.431 8.98699 105.746 10.283 105.51 11.4157C105.51 12.55 105.51 14.0895 105.587 15.3039C105.508 16.7067 105.508 18.1129 105.587 19.5157C105.587 19.8393 105.431 20.0012 105.115 20.0012C104.564 19.5157 104.957 18.1395 104.721 17.409C104.405 16.0328 104.089 14.4131 102.591 14.0895L102.354 14.2513C102.196 16.0328 102.277 17.3289 102.277 18.9501C102.277 20.4049 102.354 22.2681 102.277 23.7275C102.75 24.6984 103.932 24.2931 105.035 24.2931C107.008 23.4039 107.717 20.9736 108.111 18.7051L109.059 18.9501V24.9419L108.822 25.1854L99.6737 25.2655C99.0418 25.1037 97.9368 25.3472 97.3065 25.1037C97.0707 23.8092 98.5702 24.6969 99.0418 24.2145C99.3577 24.0512 99.5149 23.726 99.6737 23.4039V4.28973C99.5149 3.88442 99.2776 3.47911 98.9632 3.3173C98.4115 3.07535 97.2279 3.56079 97.3065 2.5899L97.4637 2.34641H108.507ZM119.942 2.34641C120.337 2.5899 121.442 2.18305 121.677 2.67004C121.677 5.66593 121.758 8.25805 121.677 11.1738C121.599 11.4157 121.204 11.4157 121.046 11.2539C120.731 8.09624 120.81 4.36987 117.971 3.23562C117.339 2.99367 116.63 3.3173 115.998 3.3173C115.604 3.72261 115.29 4.04778 115.29 4.69504V12.55C115.368 12.7935 115.447 12.9553 115.684 12.9553C117.812 12.3881 117.657 9.71593 117.971 7.53066C118.048 7.3673 118.444 7.3673 118.601 7.53066V10.8501C118.76 11.0104 118.601 11.0104 118.601 11.3356C118.76 12.0661 118.601 12.6301 118.68 13.5239V15.7092C118.444 16.9236 118.76 18.4631 118.444 19.5959C118.285 19.7592 117.971 19.6775 117.892 19.434C117.734 17.5709 117.734 15.1436 116.314 14.0094C116.157 13.846 115.684 13.846 115.447 14.0094L115.29 14.575V19.8393H115.368C115.445 21.1354 114.895 23.2405 115.841 24.0512C116.473 24.3748 117.339 24.4549 118.128 24.2931C119.864 23.726 120.337 21.8628 120.969 20.2447C120.81 19.5959 121.204 18.9501 121.204 18.2197L121.363 15.6275C121.52 15.4657 121.677 15.384 121.915 15.5474L122.073 15.7092C121.835 16.9236 122.547 18.8685 121.442 19.3554C121.363 19.6775 120.969 19.6775 120.969 20.0828C121.284 19.7592 121.677 19.4356 121.993 18.9501H122.151L122.073 23.6443C121.915 24.2145 122.308 25.1037 121.677 25.2655C120.337 25.4289 119.073 25.3472 117.734 25.3472C115.209 25.1854 112.845 25.2655 110.398 25.2655C110.162 25.1854 110.162 24.6969 110.321 24.5381C111.03 24.2916 111.976 24.4549 112.449 23.726C113.158 23.162 112.764 21.5407 112.845 20.4866C112.922 18.7051 112.687 16.3565 112.845 14.7383L112.764 10.1212V4.36833C112.529 3.72107 112.055 3.15394 111.269 3.15394C110.793 3.15394 110.241 3.23408 110.4 2.58836C110.478 2.26473 118.68 2.34487 119.942 2.34487M133.746 2.58836L133.903 2.83185L133.98 9.06867C133.746 10.1197 133.98 11.4157 133.826 12.4683C133.587 12.7118 133.351 12.4683 133.192 12.3881L132.955 8.41987C132.641 6.55668 132.325 4.85685 131.298 3.56079C131.064 3.3173 130.509 3.3173 130.352 3.56079L130.036 3.88442V23.5657C130.195 24.6984 131.775 24.0496 132.405 24.5366C132.482 24.9419 132.325 25.1854 132.009 25.2655C129.959 25.5075 127.91 25.1037 125.858 25.2655C125.385 25.3472 125.385 24.7801 125.542 24.5366C126.251 24.3763 127.121 24.4549 127.356 23.726L127.435 14.6566V3.96456C127.278 3.72261 127.121 3.47911 126.803 3.39898C125.385 3.56079 125.307 5.01713 124.911 6.07124L124.28 10.4448C124.123 11.1738 124.438 12.1462 124.045 12.5515L123.57 12.4683L123.493 7.93288C123.493 6.31473 123.413 4.28973 123.57 2.67004C124.125 2.26473 132.405 2.50822 133.746 2.58836ZM150.781 2.50822C151.176 2.42655 151.254 2.83185 151.097 3.07381C150.308 3.23716 149.519 3.23716 149.046 3.80429C148.492 5.09881 149.124 6.80018 148.889 8.17792C148.966 8.41987 148.808 8.90531 148.889 9.31062C148.966 10.3631 148.889 11.5775 148.889 12.55V21.6193C148.415 23.2405 147.705 24.8602 146.127 25.264C144.549 25.6693 143.526 24.9404 142.814 24.1313C141.947 22.8352 141.001 21.1354 141.71 19.1921C142.026 18.4616 142.578 18.0578 143.367 17.9777C143.761 18.1395 144.234 18.3013 144.392 18.7051C144.315 19.434 144.788 20.2431 144.315 20.7301C144.234 21.3804 143.367 21.3804 143.367 22.1078C143.445 23.0787 143.841 23.8878 144.629 24.2145C145.338 24.3748 145.732 24.0496 146.127 23.6443C146.682 22.0262 146.364 19.434 146.364 17.6525L146.441 12.9553V4.6149C146.284 4.12792 146.127 3.72261 145.732 3.3173C145.261 2.91353 144.156 3.47911 143.919 2.83185L144.156 2.34487C146.6 2.34487 148.335 2.58836 150.783 2.50822M168.054 2.58836C168.37 2.42809 169 2.34487 169.237 2.75018C169.314 3.23716 169 3.3173 168.684 3.39744C168.211 3.39744 167.895 3.64093 167.581 3.88442C167.265 4.45 167.265 5.26216 167.265 6.07278V15.3039L167.186 15.384C167.343 17.8143 167.186 19.434 167.343 21.946C167.581 22.9169 168.132 23.8108 169 24.2931C169.709 24.4549 170.655 24.3763 171.13 23.8092C171.919 23.239 172.077 22.3498 172.235 21.4575V13.3606L172.154 12.8751L172.235 5.74761C172.312 5.01867 172.154 4.20805 171.762 3.64093C171.365 3.3173 170.655 3.3173 170.182 3.23716L170.262 2.67004L174.443 2.58836C174.679 2.58836 174.836 2.83185 174.836 2.99367C174.836 3.39898 174.204 3.15548 174.047 3.3173C173.654 3.39898 173.259 3.72261 173.259 4.12792L173.022 5.42244V21.6193C172.865 22.9986 172.077 24.1313 171.13 24.9419C170.498 25.5075 169.237 25.2655 168.527 25.4289C166.949 25.1037 165.608 23.971 165.135 22.4299C164.189 20.4049 164.82 17.087 164.583 14.8986V4.45C164.426 3.96456 164.189 3.64093 163.794 3.39898C163.4 3.23716 162.691 3.39898 162.691 2.91199C162.61 2.42809 163.164 2.67004 163.4 2.50822L168.054 2.58836ZM192.344 2.58836C192.503 2.75018 192.819 2.83185 192.899 3.07381C194.476 7.61079 195.658 12.308 197.473 16.6816C197.946 16.6 197.314 16.1145 197.63 15.871C197.55 14.1697 197.707 12.5515 197.55 10.7685C197.707 9.79761 197.55 9.06867 197.63 8.01456C197.393 7.85274 197.789 7.61079 197.55 7.52911C197.707 6.55822 197.473 5.17894 197.473 4.04624C197.077 3.47911 196.368 3.3173 195.578 3.3173C195.578 3.23716 195.423 2.75018 195.736 2.67004H200.313C200.626 2.75018 200.469 3.07381 200.469 3.3173C199.996 3.56079 199.285 3.47911 198.97 3.96456L198.655 4.77518L198.578 9.14726V22.9986C198.496 23.6459 198.655 24.6984 198.496 25.3472C198.339 25.5075 197.946 25.5907 197.788 25.4289C197.236 24.6984 197.314 23.4825 196.763 22.7551C195.895 20.5683 195.422 18.0578 194.553 15.9527L192.978 11.3356C192.739 10.525 192.346 9.87774 192.107 9.14726L191.95 9.23048C191.716 10.2013 191.716 11.012 191.873 11.9828L191.793 16.3596V23.5657C191.95 23.971 192.107 24.3763 192.502 24.6198C192.898 24.8602 193.845 24.3763 193.845 25.1037L193.764 25.4289L189.348 25.5075C189.034 25.4289 188.64 25.4289 188.64 25.0236C188.954 24.3763 190.295 25.0236 190.612 24.2145C190.925 23.5673 190.925 22.6734 190.925 21.7842L190.846 12.4683V4.6935C190.689 3.56079 189.586 3.47911 188.718 3.23716C188.479 3.07381 188.718 2.83185 188.718 2.67004C189.9 2.50822 191.082 2.58836 192.344 2.58836ZM219.714 2.67004C220.029 2.75018 220.345 2.83185 220.345 3.23562C220.187 3.80429 219.163 3.47911 218.768 3.80429C218.213 4.04778 218.213 4.77518 218.058 5.26216V23.3222C217.82 23.8893 218.215 24.2931 218.531 24.6198C219.163 25.0236 220.58 24.9435 221.369 24.6969C222.633 23.8893 222.869 22.2681 223.421 20.8102L223.972 16.5984C224.052 16.4366 224.368 16.4366 224.604 16.5984V24.1328H224.524C224.524 24.5381 224.603 25.1854 224.447 25.5907C224.052 25.7525 223.421 25.5907 223.106 25.6709L222.869 25.5907L218.609 25.6709C216.953 25.5907 215.14 25.8311 213.798 25.4289C213.641 25.3472 213.641 25.0236 213.721 24.8602C214.192 24.5366 215.217 24.9419 215.455 24.213L215.533 23.4039V4.28973C215.14 3.47911 214.27 3.39744 213.482 3.39744C213.482 3.07381 213.325 2.75018 213.641 2.67004H219.713H219.714ZM158.667 4.77518C158.194 3.88442 157.563 3.15702 156.38 3.23716C155.276 3.47911 154.803 4.69504 154.487 5.74607C154.487 8.09624 154.566 9.63579 154.487 11.6592C154.41 12.0645 154.803 12.308 154.487 12.7118C154.645 12.7935 154.487 13.2789 154.645 13.359C154.487 14.6551 154.567 16.0328 154.487 17.2472C154.803 18.2998 154.41 19.2722 154.487 20.4065C154.41 21.7842 154.645 23.3222 155.828 24.1313C156.38 24.4549 157.328 24.5366 157.879 24.0496C158.274 23.4024 158.667 22.8352 158.826 22.0246L158.903 11.4974L158.826 11.4157V6.31473L158.667 4.77518ZM160.088 4.69504C161.114 6.15137 161.428 8.25805 161.902 10.283C162.453 14.4948 162.06 19.3539 160.481 22.4299C159.904 23.5589 159.033 24.511 157.959 25.1854C157.012 25.4289 155.592 25.509 154.96 24.8587C151.965 22.0246 151.254 17.5693 151.333 12.3881C151.491 8.90531 152.516 5.58579 154.487 3.23716C155.276 2.34641 156.776 2.10292 158.036 2.50822C158.826 3.07535 159.616 3.80428 160.088 4.69504ZM91.2331 3.39744C90.6814 3.39744 90.2082 3.15548 89.7336 3.3173C89.0247 3.3173 88.7889 3.88442 88.7088 4.45155L88.7889 12.7118C89.4207 12.9553 90.7615 13.0354 91.3903 12.6316C91.9435 12.1447 92.338 11.5791 92.4952 10.8501C92.5754 8.25805 93.443 4.77518 91.2331 3.39744ZM91.8649 2.34641C92.5198 2.53719 93.1296 2.85776 93.6581 3.28904C94.1865 3.72032 94.6228 4.2535 94.941 4.85685C95.4927 6.63682 95.807 9.55411 94.7036 11.0921C94.1519 11.9027 93.5216 12.6316 92.654 13.1988C92.4952 13.7643 93.0469 13.7643 93.3629 14.2498C94.4678 15.0619 94.6266 16.9251 94.6266 18.383C94.6266 18.2181 94.4678 18.0578 94.3892 18.2181C94.3091 18.4616 94.4678 18.6234 94.7036 18.6234C94.7838 20.0012 94.5464 21.5407 94.8624 22.7551C94.8948 22.8687 94.9548 22.9724 95.0371 23.0571C95.1194 23.1419 95.2214 23.2049 95.3339 23.2405C95.73 23.1604 95.807 22.7551 95.9658 22.5116C95.8872 21.7842 96.0428 20.9751 96.123 20.2447C96.3603 20.4065 96.5976 19.921 96.7548 20.2447C96.912 22.1078 96.8334 24.0496 95.6499 24.9419C95.1767 25.2655 94.7036 25.4289 93.9932 25.3472C93.2617 25.124 92.6421 24.6317 92.2594 23.9695L92.0221 22.4299V16.5984C91.7863 15.4657 91.549 14.2498 90.4456 13.9277C89.9709 13.7643 89.1834 13.6041 88.7889 13.9277L88.6317 14.2513V23.2405C88.7889 23.7275 88.9461 24.1313 89.3406 24.2931C89.7336 24.3748 90.2868 24.2931 90.2082 24.9404L90.0495 25.1854L85.9502 25.264C85.7915 25.264 85.5557 25.1022 85.4755 25.264C85.081 24.9404 83.7418 25.6709 84.0562 24.6984C84.0562 24.1313 84.7666 24.5366 85.081 24.2931C85.4755 24.213 85.7129 23.8092 85.9487 23.5657C85.9487 23.1604 86.186 22.6734 86.0288 22.2681L86.1059 17.5709C86.1059 15.6291 86.0288 13.7643 86.1059 12.0645C86.1059 10.8501 86.1059 9.14881 86.0288 7.85274C86.1059 7.04367 86.0288 5.82929 86.1059 5.01713C85.9487 4.28819 85.7915 3.56079 85.1612 3.3173C84.7666 3.15548 84.0562 3.39744 83.8975 2.99367C83.8204 2.67004 83.8975 2.42655 84.2149 2.34641H91.8649ZM184.223 4.69504C183.511 3.80428 182.723 2.99521 181.224 3.3173C181.008 3.39092 180.814 3.51913 180.662 3.6895C180.51 3.85988 180.405 4.06663 180.356 4.28973C180.356 7.3673 180.356 9.71593 180.436 12.7935C181.224 13.0354 182.645 13.0354 183.275 12.7935C183.984 12.4698 184.223 11.7409 184.459 10.9303L184.536 6.63682C184.459 6.07278 184.459 5.26216 184.223 4.69504ZM180.752 2.67004C183.118 2.34641 185.483 2.83185 186.43 4.77518C187.219 6.07278 187.692 8.09624 187.14 9.87929C186.431 11.1738 185.879 12.7935 184.459 13.4392C184.459 14.1697 185.246 14.333 185.562 14.8986C185.879 15.5489 186.194 16.1161 186.194 17.0037L186.351 21.1354C186.351 21.8643 186.274 23.0772 186.983 23.4039C187.929 23.0787 187.692 21.6209 187.851 20.5683C187.929 20.4881 188.245 20.4881 188.324 20.5683C188.559 22.3513 188.166 24.0496 187.14 25.1022C186.588 25.3488 185.879 25.6709 185.246 25.4289C184.537 25.4289 184.537 24.6183 184.064 24.213L183.827 21.8643V17.1671C183.75 16.1145 183.67 14.8986 182.881 14.333C182.329 13.846 181.304 13.6842 180.515 14.0094L180.356 14.2498C180.042 17.409 180.436 20.0012 180.356 23.3222C180.436 23.8092 180.515 24.3748 181.067 24.6183C181.54 24.6984 181.776 24.6183 182.33 24.7801C182.407 24.9419 182.33 25.1854 182.407 25.4274L178.228 25.5075L175.939 25.3472C175.782 25.1854 175.782 24.7801 175.939 24.6984C176.651 24.6984 177.203 24.4549 177.598 24.0496L177.833 23.2405V4.61336C177.675 4.12637 177.598 3.64247 177.125 3.39744C176.728 3.23716 176.02 3.47911 176.02 2.91199C176.255 2.34641 176.728 2.83185 177.283 2.58836C178.464 2.67004 179.412 2.67004 180.752 2.67004ZM205.752 9.47244L205.438 9.3923C205.202 9.95788 205.123 10.6883 204.964 11.3356L204.334 15.6275C204.105 16.5595 203.947 17.5074 203.861 18.4631L204.254 18.7051L207.41 18.6234L207.567 18.4616C207.173 15.3054 206.227 12.55 205.753 9.47244H205.752ZM207.725 6.72004C208.04 8.98699 208.751 11.012 208.988 13.3606L210.408 20.0828C210.881 21.7025 210.802 23.8092 212.3 24.6183C212.695 24.6984 213.168 24.6984 212.932 25.3457L212.852 25.5075C211.036 25.5892 208.592 25.6693 206.701 25.4289C206.305 24.2931 207.646 24.7801 208.119 24.4549C208.514 24.1313 208.592 23.484 208.514 22.7551C208.278 21.6193 208.119 20.4065 207.646 19.5157C206.385 19.434 204.886 19.434 203.781 19.5943C203.466 19.9996 203.388 20.65 203.308 21.2972C203.151 22.2681 202.519 23.7275 203.466 24.5366C203.861 24.9419 205.438 24.213 204.884 25.4289C203.624 25.6693 202.126 25.5892 200.864 25.5892C200.469 25.4289 199.601 25.751 199.839 24.9419C199.839 24.4549 200.625 24.7801 200.864 24.6183C201.572 24.2145 201.888 23.484 202.046 22.7551L202.992 17.2472L204.175 10.2815L204.884 6.23305C205.123 5.01713 205.28 3.64247 205.832 2.67004L206.858 2.75018L207.725 6.72004ZM23.7207 13.7659L22.8531 9.71439L22.6944 9.63425L22.1427 12.6316L21.4338 17.2472L21.3536 18.3013L21.9855 18.383C22.8531 18.1395 23.9581 18.7852 24.5082 18.1395L23.7207 13.7659ZM24.1939 2.83185C24.5082 5.01867 25.1401 6.96199 25.4576 9.22894L27.1127 17.5709C27.5072 19.434 27.6644 21.2972 28.1375 22.9986C28.3749 23.7275 28.8464 24.2145 29.637 24.2931C29.637 24.5366 29.8728 24.6984 29.7141 24.8602L29.4783 25.1037H24.8242C24.6654 24.8602 23.8795 25.1037 23.5635 24.8602C23.3262 23.6443 25.0615 24.6183 25.2187 23.7275C25.6132 23.3222 25.456 22.5131 25.3774 22.0262C24.9829 21.2171 25.3004 19.8378 24.5082 19.2722H21.3536L21.0377 19.434C20.9606 20.8919 19.9358 22.5131 20.8019 23.971C21.1178 24.2145 21.7497 24.1313 21.9855 24.3748L21.9069 24.8602L17.41 24.9419C16.9368 25.1037 17.017 24.3748 17.1742 24.2145C18.1219 24.2931 18.6737 23.8092 19.1468 23.3222C19.6985 22.0262 19.6985 20.4065 20.093 18.9486L20.9606 13.2789L21.7497 8.58322C22.1427 6.63682 22.38 4.6149 22.7745 2.58836C22.8531 2.18305 24.3511 1.9411 24.1939 2.83185Z" fill="#AFB9C8"/>
</g>
</svg>
