<svg width="24" height="24" viewBox="0 0 24 24" fill="none" xmlns="http://www.w3.org/2000/svg">
  <path fill-rule="evenodd" clip-rule="evenodd"
    d="M11.0183 5.56776L4.61803 12.3992C3.69586 13.3835 3.5629 14.8294 4.20629 15.9465C4.1725 15.9726 4.14 16.0011 4.10902 16.0321C2.81666 17.3244 2.47703 19.0086 2.9749 20.4464C3.47107 21.8793 4.76923 22.9718 6.5096 23.1373C7.58007 23.2391 8.62474 22.8554 9.55368 22.3669C10.4634 21.8885 11.3953 21.2351 12.2785 20.6159L12.3591 20.5593C13.2914 19.9058 14.1795 19.2881 15.0536 18.8285C15.9297 18.3679 16.7014 18.1165 17.3907 18.1165C18.4778 18.1165 19.2544 18.7253 19.6775 19.5235C20.1367 20.3896 20.0563 21.2047 19.8027 21.551C19.4765 21.9967 19.5733 22.6224 20.0189 22.9486C20.4645 23.2749 21.0902 23.1781 21.4165 22.7325C22.2836 21.5481 22.1146 19.8505 21.4445 18.5867C20.7385 17.2549 19.3453 16.1165 17.3907 16.1165C16.2357 16.1165 15.1272 16.5303 14.1228 17.0583C13.1165 17.5874 12.1241 18.2816 11.2111 18.9216L11.1897 18.9366C10.26 19.5884 9.41802 20.1786 8.62279 20.5968C7.81291 21.0226 7.18975 21.1929 6.69894 21.1462C5.73232 21.0543 5.10277 20.4792 4.8648 19.7919C4.62852 19.1096 4.74832 18.2212 5.52323 17.4463C5.53078 17.4388 5.53818 17.4311 5.54544 17.4234C6.69548 18.4434 8.44708 18.4316 9.58398 17.3678L16.4067 10.9837C18.9779 10.7767 20.9999 8.62446 20.9999 6C20.9999 3.23858 18.7613 1 15.9999 1C13.3841 1 11.2375 3.00871 11.0183 5.56776ZM13.0231 5.6252L16.3747 8.97682C17.8547 8.79237 18.9999 7.52993 18.9999 6C18.9999 4.34315 17.6568 3 15.9999 3C14.47 3 13.2075 4.14524 13.0231 5.6252ZM6.07755 13.7666L12.0071 7.43763L14.5508 9.98131L8.21749 15.9074C7.82365 16.2759 7.20852 16.2657 6.82713 15.8843L6.10019 15.1574C5.71864 14.7758 5.70861 14.1604 6.07755 13.7666Z"
    fill="#1E1E1E" />
</svg>